Roman_opsz5_wght700.ufo
<glyph name="dollar" format="2">
  <advance width="758"/>
  <unicode hex="0024"/>
  <outline>
    <contour>
      <point x="346" y="-56" type="line"/>
      <point x="413" y="-56" type="line"/>
      <point x="413" y="-7" type="line"/>
      <point x="600" y="7"/>
      <point x="660" y="124"/>
      <point x="660" y="213" type="curve" smooth="yes"/>
      <point x="660.0" y="241.567"/>
      <point x="652.182553" y="299.704343"/>
      <point x="601.2760179139999" y="350.35699033099996" type="curve" smooth="yes"/>
      <point x="564.864311" y="386.5871"/>
      <point x="506.408" y="418.98800000000006"/>
      <point x="413" y="434" type="curve"/>
      <point x="413" y="634" type="line"/>
      <point x="483" y="629"/>
      <point x="527" y="613"/>
      <point x="554" y="583" type="curve"/>
      <point x="554" y="583" type="line"/>
      <point x="526" y="571"/>
      <point x="510" y="545"/>
      <point x="510" y="515" type="curve" smooth="yes"/>
      <point x="510" y="469"/>
      <point x="544" y="440"/>
      <point x="585" y="440" type="curve" smooth="yes"/>
      <point x="618" y="440"/>
      <point x="660" y="460"/>
      <point x="660" y="518" type="curve" smooth="yes"/>
      <point x="660" y="674"/>
      <point x="492" y="698"/>
      <point x="413" y="701" type="curve"/>
      <point x="413" y="750" type="line"/>
      <point x="346" y="750" type="line"/>
      <point x="346" y="701" type="line"/>
      <point x="144" y="687"/>
      <point x="98" y="566"/>
      <point x="98" y="495" type="curve" smooth="yes"/>
      <point x="98" y="422"/>
      <point x="143" y="375"/>
      <point x="169" y="355" type="curve" smooth="yes"/>
      <point x="226" y="311"/>
      <point x="279" y="298"/>
      <point x="346" y="287" type="curve"/>
      <point x="346" y="60" type="line"/>
      <point x="282" y="65"/>
      <point x="226" y="85"/>
      <point x="201" y="123" type="curve"/>
      <point x="201" y="123" type="line"/>
      <point x="234" y="136"/>
      <point x="248" y="165"/>
      <point x="248" y="193" type="curve" smooth="yes"/>
      <point x="248" y="236"/>
      <point x="216" y="268"/>
      <point x="173" y="268" type="curve" smooth="yes"/>
      <point x="137" y="268"/>
      <point x="98" y="245"/>
      <point x="98" y="190" type="curve" smooth="yes"/>
      <point x="98" y="7"/>
      <point x="308" y="-5"/>
      <point x="346" y="-7" type="curve"/>
    </contour>
    <contour>
      <point x="346" y="446" type="line"/>
      <point x="313" y="451"/>
      <point x="196" y="468"/>
      <point x="196" y="540" type="curve" smooth="yes"/>
      <point x="196" y="582"/>
      <point x="242" y="627"/>
      <point x="346" y="634" type="curve"/>
    </contour>
    <contour>
      <point x="413" y="276" type="line"/>
      <point x="507" y="262"/>
      <point x="562" y="222"/>
      <point x="562" y="168" type="curve" smooth="yes"/>
      <point x="562" y="129"/>
      <point x="531" y="71"/>
      <point x="413" y="60" type="curve"/>
    </contour>
  </outline>
</glyph>
<glyph name="percent" format="2">
  <advance width="1241"/>
  <unicode hex="0025"/>
  <outline>
    <contour>
      <point x="1002" y="667" type="line" smooth="yes"/>
      <point x="1015" y="680"/>
      <point x="1024" y="689"/>
      <point x="1024" y="707" type="curve" smooth="yes"/>
      <point x="1024" y="730"/>
      <point x="1005" y="750"/>
      <point x="981" y="750" type="curve" smooth="yes"/>
      <point x="965" y="750"/>
      <point x="957" y="743"/>
      <point x="947" y="733" type="curve"/>
      <point x="906" y="696"/>
      <point x="835" y="642"/>
      <point x="703" y="642" type="curve" smooth="yes"/>
      <point x="617" y="642"/>
      <point x="517" y="667"/>
      <point x="416" y="721" type="curve" smooth="yes"/>
      <point x="391" y="734"/>
      <point x="362" y="750"/>
      <point x="308" y="750" type="curve" smooth="yes"/>
      <point x="180" y="750"/>
      <point x="98" y="666"/>
      <point x="98" y="549" type="curve" smooth="yes"/>
      <point x="98" y="426"/>
      <point x="185" y="347"/>
      <point x="308" y="347" type="curve" smooth="yes"/>
      <point x="425" y="347"/>
      <point x="500" y="428"/>
      <point x="500" y="549" type="curve" smooth="yes"/>
      <point x="500" y="591"/>
      <point x="489" y="626"/>
      <point x="488" y="628" type="curve"/>
      <point x="555" y="605"/>
      <point x="618" y="587"/>
      <point x="705" y="587" type="curve" smooth="yes"/>
      <point x="725" y="587"/>
      <point x="763" y="587"/>
      <point x="811" y="598" type="curve"/>
      <point x="811" y="598" type="line"/>
      <point x="235" y="22" type="line" smooth="yes"/>
      <point x="226" y="13"/>
      <point x="218" y="3"/>
      <point x="218" y="-13" type="curve" smooth="yes"/>
      <point x="218" y="-37"/>
      <point x="237" y="-56"/>
      <point x="261" y="-56" type="curve" smooth="yes"/>
      <point x="279" y="-56"/>
      <point x="288" y="-47"/>
      <point x="301" y="-34" type="curve" smooth="yes"/>
    </contour>
    <contour>
      <point x="310" y="403" type="curve" smooth="yes"/>
      <point x="223" y="403"/>
      <point x="223" y="492"/>
      <point x="223" y="548" type="curve" smooth="yes"/>
      <point x="223" y="606"/>
      <point x="223" y="694"/>
      <point x="310" y="694" type="curve" smooth="yes"/>
      <point x="364" y="694"/>
      <point x="417" y="652"/>
      <point x="417" y="549" type="curve" smooth="yes"/>
      <point x="417" y="441"/>
      <point x="361" y="403"/>
    </contour>
    <contour>
      <point x="954" y="0" type="curve" smooth="yes"/>
      <point x="867" y="0"/>
      <point x="867" y="89"/>
      <point x="867" y="145" type="curve" smooth="yes"/>
      <point x="867" y="203"/>
      <point x="867" y="291"/>
      <point x="954" y="291" type="curve" smooth="yes"/>
      <point x="1008" y="291"/>
      <point x="1061" y="249"/>
      <point x="1061" y="146" type="curve" smooth="yes"/>
      <point x="1061" y="38"/>
      <point x="1005" y="0"/>
    </contour>
    <contour>
      <point x="1144" y="145" type="curve" smooth="yes"/>
      <point x="1144" y="267"/>
      <point x="1068" y="347"/>
      <point x="952" y="347" type="curve" smooth="yes"/>
      <point x="824" y="347"/>
      <point x="742" y="263"/>
      <point x="742" y="146" type="curve" smooth="yes"/>
      <point x="742" y="23"/>
      <point x="829" y="-56"/>
      <point x="952" y="-56" type="curve" smooth="yes"/>
      <point x="1072" y="-56"/>
      <point x="1144" y="29"/>
    </contour>
  </outline>
</glyph>
<glyph name="five" format="2">
  <advance width="758"/>
  <unicode hex="0035"/>
  <outline>
    <contour>
      <point x="233" y="491" type="line"/>
      <point x="271" y="487"/>
      <point x="311" y="487"/>
      <point x="313" y="487" type="curve" smooth="yes"/>
      <point x="465" y="487"/>
      <point x="555" y="560"/>
      <point x="597" y="603" type="curve" smooth="yes"/>
      <point x="610" y="616"/>
      <point x="612" y="618"/>
      <point x="612" y="633" type="curve" smooth="yes"/>
      <point x="612" y="638"/>
      <point x="612" y="661"/>
      <point x="590" y="661" type="curve" smooth="yes"/>
      <point x="588" y="661"/>
      <point x="586" y="661"/>
      <point x="579" y="658" type="curve"/>
      <point x="540" y="648"/>
      <point x="469" y="629"/>
      <point x="376" y="629" type="curve" smooth="yes"/>
      <point x="308" y="629"/>
      <point x="242" y="639"/>
      <point x="176" y="657" type="curve"/>
      <point x="166" y="661"/>
      <point x="164" y="661"/>
      <point x="161" y="661" type="curve" smooth="yes"/>
      <point x="139" y="661"/>
      <point x="139" y="639"/>
      <point x="139" y="625" type="curve" smooth="yes"/>
      <point x="139" y="324" type="line" smooth="yes"/>
      <point x="139" y="292"/>
      <point x="144" y="285"/>
      <point x="177" y="285" type="curve" smooth="yes"/>
      <point x="198" y="285"/>
      <point x="199" y="286"/>
      <point x="217" y="303" type="curve" smooth="yes"/>
      <point x="232" y="318"/>
      <point x="274" y="359"/>
      <point x="384" y="359" type="curve" smooth="yes"/>
      <point x="513" y="359"/>
      <point x="513" y="266"/>
      <point x="513" y="207" type="curve" smooth="yes"/>
      <point x="513" y="147"/>
      <point x="513" y="44"/>
      <point x="346" y="44" type="curve" smooth="yes"/>
      <point x="329" y="44"/>
      <point x="255" y="45"/>
      <point x="207" y="86" type="curve"/>
      <point x="244" y="107"/>
      <point x="247" y="141"/>
      <point x="247" y="155" type="curve" smooth="yes"/>
      <point x="247" y="204"/>
      <point x="208" y="234"/>
      <point x="168" y="234" type="curve" smooth="yes"/>
      <point x="132" y="234"/>
      <point x="89" y="209"/>
      <point x="89" y="153" type="curve" smooth="yes"/>
      <point x="89" y="55"/>
      <point x="189" y="-17"/>
      <point x="348" y="-17" type="curve" smooth="yes"/>
      <point x="570" y="-17"/>
      <point x="669" y="91"/>
      <point x="669" y="201" type="curve" smooth="yes"/>
      <point x="669" y="302"/>
      <point x="590" y="415"/>
      <point x="389" y="415" type="curve" smooth="yes"/>
      <point x="329" y="415"/>
      <point x="279" y="405"/>
      <point x="233" y="381" type="curve"/>
    </contour>
  </outline>
</glyph>
<glyph name="eight" format="2">
  <advance width="758"/>
  <unicode hex="0038"/>
  <outline>
    <contour>
      <point x="527" y="367" type="curve"/>
      <point x="618" y="407"/>
      <point x="640" y="461"/>
      <point x="640" y="507" type="curve" smooth="yes"/>
      <point x="640" y="653"/>
      <point x="465" y="661"/>
      <point x="383" y="661" type="curve" smooth="yes"/>
      <point x="273" y="661"/>
      <point x="118" y="631"/>
      <point x="118" y="480" type="curve" smooth="yes"/>
      <point x="118" y="398"/>
      <point x="186" y="351"/>
      <point x="221" y="333" type="curve"/>
      <point x="145" y="305"/>
      <point x="77" y="257"/>
      <point x="77" y="162" type="curve" smooth="yes"/>
      <point x="77" y="-6"/>
      <point x="274" y="-17"/>
      <point x="376" y="-17" type="curve" smooth="yes"/>
      <point x="425" y="-17"/>
      <point x="681" y="-17"/>
      <point x="681" y="186" type="curve" smooth="yes"/>
      <point x="681" y="263"/>
      <point x="628" y="327"/>
    </contour>
    <contour>
      <point x="452" y="401" type="curve"/>
      <point x="311" y="464" type="line" smooth="yes"/>
      <point x="242" y="494"/>
      <point x="218" y="505"/>
      <point x="218" y="535" type="curve" smooth="yes"/>
      <point x="218" y="580"/>
      <point x="254" y="605"/>
      <point x="373" y="605" type="curve" smooth="yes"/>
      <point x="435" y="605"/>
      <point x="540" y="596"/>
      <point x="540" y="506" type="curve" smooth="yes"/>
      <point x="540" y="458"/>
      <point x="509" y="423"/>
    </contour>
    <contour>
      <point x="503" y="208" type="line" smooth="yes"/>
      <point x="507" y="206"/>
      <point x="565" y="181"/>
      <point x="565" y="136" type="curve" smooth="yes"/>
      <point x="565" y="79"/>
      <point x="519" y="44"/>
      <point x="383" y="44" type="curve" smooth="yes"/>
      <point x="305" y="44"/>
      <point x="193" y="60"/>
      <point x="193" y="163" type="curve" smooth="yes"/>
      <point x="193" y="225"/>
      <point x="233" y="268"/>
      <point x="303" y="296" type="curve"/>
    </contour>
  </outline>
</glyph>
<glyph name="nine" format="2">
  <advance width="758"/>
  <unicode hex="0039"/>
  <outline>
    <contour>
      <point x="524" y="300" type="curve"/>
      <point x="523" y="242"/>
      <point x="522" y="168"/>
      <point x="482" y="115" type="curve" smooth="yes"/>
      <point x="432" y="50"/>
      <point x="353" y="44"/>
      <point x="318" y="44" type="curve" smooth="yes"/>
      <point x="308" y="44"/>
      <point x="265" y="44"/>
      <point x="234" y="60" type="curve"/>
      <point x="235" y="61"/>
      <point x="264" y="81"/>
      <point x="264" y="122" type="curve" smooth="yes"/>
      <point x="264" y="168"/>
      <point x="229" y="197"/>
      <point x="189" y="197" type="curve" smooth="yes"/>
      <point x="155" y="197"/>
      <point x="114" y="174"/>
      <point x="114" y="120" type="curve" smooth="yes"/>
      <point x="114" y="-17"/>
      <point x="285" y="-17"/>
      <point x="319" y="-17" type="curve" smooth="yes"/>
      <point x="526" y="-17"/>
      <point x="681" y="107"/>
      <point x="681" y="328" type="curve" smooth="yes"/>
      <point x="681" y="530"/>
      <point x="592" y="661"/>
      <point x="381" y="661" type="curve" smooth="yes"/>
      <point x="304" y="661"/>
      <point x="245" y="653"/>
      <point x="180" y="613" type="curve" smooth="yes"/>
      <point x="99" y="564"/>
      <point x="77" y="504"/>
      <point x="77" y="439" type="curve" smooth="yes"/>
      <point x="77" y="308"/>
      <point x="186" y="219"/>
      <point x="353" y="219" type="curve" smooth="yes"/>
      <point x="437" y="219"/>
      <point x="490" y="257"/>
    </contour>
    <contour>
      <point x="366" y="275" type="curve" smooth="yes"/>
      <point x="234" y="275"/>
      <point x="234" y="356"/>
      <point x="234" y="439" type="curve" smooth="yes"/>
      <point x="234" y="517"/>
      <point x="234" y="605"/>
      <point x="381" y="605" type="curve" smooth="yes"/>
      <point x="507" y="605"/>
      <point x="521" y="509"/>
      <point x="521" y="432" type="curve" smooth="yes"/>
      <point x="521" y="331"/>
      <point x="448" y="275"/>
    </contour>
  </outline>
</glyph>
<glyph name="B" format="2">
  <advance width="1056"/>
  <unicode hex="0042"/>
  <outline>
    <contour>
      <point x="100" y="686" type="line"/>
      <point x="100" y="619" type="line"/>
      <point x="206" y="619" type="line"/>
      <point x="206" y="67" type="line"/>
      <point x="100" y="67" type="line"/>
      <point x="100" y="0" type="line"/>
      <point x="649" y="0" type="line" smooth="yes"/>
      <point x="846" y="0"/>
      <point x="959" y="86"/>
      <point x="959" y="189" type="curve" smooth="yes"/>
      <point x="959" y="273"/>
      <point x="872" y="342"/>
      <point x="721" y="359" type="curve"/>
      <point x="842" y="381"/>
      <point x="919" y="437"/>
      <point x="919" y="511" type="curve" smooth="yes"/>
      <point x="919" y="609"/>
      <point x="799" y="686"/>
      <point x="611" y="686" type="curve" smooth="yes"/>
    </contour>
    <contour>
      <point x="345" y="385" type="line"/>
      <point x="345" y="619" type="line"/>
      <point x="599" y="619" type="line" smooth="yes"/>
      <point x="718" y="619"/>
      <point x="764" y="561"/>
      <point x="764" y="510" type="curve" smooth="yes"/>
      <point x="764" y="440"/>
      <point x="687" y="385"/>
      <point x="568" y="385" type="curve" smooth="yes"/>
    </contour>
    <contour>
      <point x="345" y="67" type="line"/>
      <point x="345" y="329" type="line"/>
      <point x="612" y="329" type="line" smooth="yes"/>
      <point x="760" y="329"/>
      <point x="795" y="244"/>
      <point x="795" y="191" type="curve" smooth="yes"/>
      <point x="795" y="114"/>
      <point x="715" y="67"/>
      <point x="602" y="67" type="curve" smooth="yes"/>
    </contour>
  </outline>
</glyph>
<glyph name="D" format="2">
  <advance width="1137"/>
  <unicode hex="0044"/>
  <outline>
    <contour>
      <point x="1039" y="337" type="curve" smooth="yes"/>
      <point x="1039" y="546"/>
      <point x="863" y="686"/>
      <point x="608" y="686" type="curve" smooth="yes"/>
      <point x="96" y="686" type="line"/>
      <point x="96" y="619" type="line"/>
      <point x="202" y="619" type="line"/>
      <point x="202" y="619" type="line"/>
      <point x="202" y="67" type="line"/>
      <point x="202" y="67" type="line"/>
      <point x="96" y="67" type="line"/>
      <point x="96" y="0" type="line"/>
      <point x="608" y="0" type="line" smooth="yes"/>
      <point x="868" y="0"/>
      <point x="1039" y="139"/>
    </contour>
    <contour>
      <point x="350" y="67" type="line"/>
      <point x="350" y="67" type="line"/>
      <point x="350" y="619" type="line"/>
      <point x="350" y="619" type="line"/>
      <point x="567" y="619" type="line" smooth="yes"/>
      <point x="642" y="619"/>
      <point x="728" y="605"/>
      <point x="787" y="562" type="curve" smooth="yes"/>
      <point x="838" y="524"/>
      <point x="875" y="469"/>
      <point x="875" y="338" type="curve" smooth="yes"/>
      <point x="875.0" y="284.65840000000003"/>
      <point x="872.64682372" y="202.07018052"/>
      <point x="812.196145496688" y="142.081462631472" type="curve" smooth="yes"/>
      <point x="768.38556428" y="98.60567916"/>
      <point x="694.0600000000001" y="66.99999999999999"/>
      <point x="568" y="67" type="curve" smooth="yes"/>
    </contour>
  </outline>
</glyph>
<glyph name="E" format="2">
  <advance width="977"/>
  <unicode hex="0045"/>
  <outline>
    <contour>
      <point x="921" y="229" type="line"/>
      <point x="838" y="229" type="line"/>
      <point x="801" y="81"/>
      <point x="698" y="67"/>
      <point x="577" y="67" type="curve" smooth="yes"/>
      <point x="354" y="67" type="line"/>
      <point x="354" y="67" type="line"/>
      <point x="354" y="318" type="line"/>
      <point x="443" y="318" type="line" smooth="yes"/>
      <point x="507" y="318"/>
      <point x="563" y="314"/>
      <point x="565" y="235" type="curve"/>
      <point x="648" y="235" type="line"/>
      <point x="648" y="468" type="line"/>
      <point x="565" y="468" type="line"/>
      <point x="563" y="389"/>
      <point x="507" y="385"/>
      <point x="443" y="385" type="curve" smooth="yes"/>
      <point x="354" y="385" type="line"/>
      <point x="354" y="611" type="line"/>
      <point x="354" y="611" type="line"/>
      <point x="563" y="611" type="line" smooth="yes"/>
      <point x="674" y="611"/>
      <point x="770" y="601"/>
      <point x="797" y="472" type="curve"/>
      <point x="880" y="472" type="line"/>
      <point x="841" y="678" type="line"/>
      <point x="92" y="678" type="line"/>
      <point x="92" y="611" type="line"/>
      <point x="198" y="611" type="line"/>
      <point x="198" y="611" type="line"/>
      <point x="198" y="67" type="line"/>
      <point x="198" y="67" type="line"/>
      <point x="92" y="67" type="line"/>
      <point x="92" y="0" type="line"/>
      <point x="863" y="0" type="line"/>
    </contour>
  </outline>
</glyph>
<glyph name="G" format="2">
  <advance width="1169"/>
  <unicode hex="0047"/>
  <outline>
    <contour>
      <point x="98" y="343" type="curve" smooth="yes"/>
      <point x="98" y="73"/>
      <point x="379" y="-17"/>
      <point x="589" y="-17" type="curve" smooth="yes"/>
      <point x="664" y="-17"/>
      <point x="731" y="-16"/>
      <point x="786" y="-6" type="curve" smooth="yes"/>
      <point x="826" y="1"/>
      <point x="859" y="12"/>
      <point x="883" y="31" type="curve"/>
      <point x="904" y="20"/>
      <point x="953" y="0"/>
      <point x="961" y="0" type="curve" smooth="yes"/>
      <point x="983" y="0"/>
      <point x="983" y="21"/>
      <point x="983" y="35" type="curve" smooth="yes"/>
      <point x="983" y="203" type="line"/>
      <point x="983" y="203" type="line"/>
      <point x="1084" y="203" type="line"/>
      <point x="1084" y="270" type="line"/>
      <point x="1029" y="268"/>
      <point x="975" y="266"/>
      <point x="892" y="266" type="curve" smooth="yes"/>
      <point x="834" y="266"/>
      <point x="697" y="266"/>
      <point x="646" y="270" type="curve"/>
      <point x="646" y="203" type="line"/>
      <point x="827" y="203" type="line"/>
      <point x="827" y="203" type="line"/>
      <point x="827" y="122" type="line" smooth="yes"/>
      <point x="827" y="96"/>
      <point x="827" y="72"/>
      <point x="772" y="59" type="curve" smooth="yes"/>
      <point x="746" y="53"/>
      <point x="707" y="50"/>
      <point x="650" y="50" type="curve" smooth="yes"/>
      <point x="543" y="50"/>
      <point x="451" y="66"/>
      <point x="383" y="108" type="curve" smooth="yes"/>
      <point x="312" y="153"/>
      <point x="270" y="228"/>
      <point x="270" y="344" type="curve"/>
      <point x="270" y="418"/>
      <point x="288" y="514"/>
      <point x="370" y="571" type="curve" smooth="yes"/>
      <point x="425" y="608"/>
      <point x="502" y="636"/>
      <point x="621" y="636" type="curve" smooth="yes"/>
      <point x="787" y="636"/>
      <point x="874" y="533"/>
      <point x="890" y="434" type="curve" smooth="yes"/>
      <point x="893" y="416"/>
      <point x="906" y="416"/>
      <point x="938" y="416" type="curve" smooth="yes"/>
      <point x="981" y="416"/>
      <point x="983" y="421"/>
      <point x="983" y="451" type="curve" smooth="yes"/>
      <point x="983" y="668" type="line" smooth="yes"/>
      <point x="983" y="689"/>
      <point x="983" y="703"/>
      <point x="953" y="703" type="curve" smooth="yes"/>
      <point x="939" y="703"/>
      <point x="937" y="702"/>
      <point x="925" y="692" type="curve" smooth="yes"/>
      <point x="856" y="633" type="line"/>
      <point x="743" y="703"/>
      <point x="627" y="703"/>
      <point x="593" y="703" type="curve" smooth="yes"/>
      <point x="250" y="703"/>
      <point x="98" y="523"/>
    </contour>
  </outline>
</glyph>
<glyph name="H" format="2">
  <advance width="1152"/>
  <unicode hex="0048"/>
  <outline>
    <contour>
      <point x="92" y="0" type="line"/>
      <point x="151" y="3"/>
      <point x="241" y="4"/>
      <point x="276" y="4" type="curve" smooth="yes"/>
      <point x="297" y="4"/>
      <point x="394" y="3"/>
      <point x="460" y="0" type="curve"/>
      <point x="460" y="67" type="line"/>
      <point x="354" y="67" type="line"/>
      <point x="354" y="67" type="line"/>
      <point x="354" y="323" type="line"/>
      <point x="799" y="323" type="line"/>
      <point x="799" y="67" type="line"/>
      <point x="799" y="67" type="line"/>
      <point x="693" y="67" type="line"/>
      <point x="693" y="0" type="line"/>
      <point x="752" y="3"/>
      <point x="842" y="4"/>
      <point x="877" y="4" type="curve" smooth="yes"/>
      <point x="898" y="4"/>
      <point x="995" y="3"/>
      <point x="1061" y="0" type="curve"/>
      <point x="1061" y="67" type="line"/>
      <point x="955" y="67" type="line"/>
      <point x="955" y="67" type="line"/>
      <point x="955" y="619" type="line"/>
      <point x="955" y="619" type="line"/>
      <point x="1061" y="619" type="line"/>
      <point x="1061" y="686" type="line"/>
      <point x="1002" y="683"/>
      <point x="912" y="682"/>
      <point x="877" y="682" type="curve" smooth="yes"/>
      <point x="856" y="682"/>
      <point x="759" y="683"/>
      <point x="693" y="686" type="curve"/>
      <point x="693" y="619" type="line"/>
      <point x="799" y="619" type="line"/>
      <point x="799" y="619" type="line"/>
      <point x="799" y="390" type="line"/>
      <point x="354" y="390" type="line"/>
      <point x="354" y="619" type="line"/>
      <point x="354" y="619" type="line"/>
      <point x="460" y="619" type="line"/>
      <point x="460" y="686" type="line"/>
      <point x="401" y="683"/>
      <point x="311" y="682"/>
      <point x="276" y="682" type="curve" smooth="yes"/>
      <point x="255" y="682"/>
      <point x="158" y="683"/>
      <point x="92" y="686" type="curve"/>
      <point x="92" y="619" type="line"/>
      <point x="198" y="619" type="line"/>
      <point x="198" y="619" type="line"/>
      <point x="198" y="67" type="line"/>
      <point x="198" y="67" type="line"/>
      <point x="92" y="67" type="line"/>
    </contour>
  </outline>
</glyph>
<glyph name="I" format="2">
  <advance width="550"/>
  <unicode hex="0049"/>
  <outline>
    <contour>
      <point x="86" y="0" type="line"/>
      <point x="147" y="4"/>
      <point x="214" y="4"/>
      <point x="275" y="4" type="curve" smooth="yes"/>
      <point x="336" y="4"/>
      <point x="403" y="4"/>
      <point x="464" y="0" type="curve"/>
      <point x="464" y="67" type="line"/>
      <point x="353" y="67" type="line"/>
      <point x="353" y="67" type="line"/>
      <point x="353" y="619" type="line"/>
      <point x="353" y="619" type="line"/>
      <point x="464" y="619" type="line"/>
      <point x="464" y="686" type="line"/>
      <point x="403" y="682"/>
      <point x="336" y="682"/>
      <point x="275" y="682" type="curve" smooth="yes"/>
      <point x="214" y="682"/>
      <point x="147" y="682"/>
      <point x="86" y="686" type="curve"/>
      <point x="86" y="619" type="line"/>
      <point x="197" y="619" type="line"/>
      <point x="197" y="619" type="line"/>
      <point x="197" y="67" type="line"/>
      <point x="197" y="67" type="line"/>
      <point x="86" y="67" type="line"/>
    </contour>
  </outline>
</glyph>
<glyph name="K" format="2">
  <advance width="1154"/>
  <unicode hex="004B"/>
  <outline>
    <contour>
      <point x="92" y="0" type="line"/>
      <point x="151" y="3"/>
      <point x="241" y="4"/>
      <point x="276" y="4" type="curve" smooth="yes"/>
      <point x="297" y="4"/>
      <point x="394" y="3"/>
      <point x="460" y="0" type="curve"/>
      <point x="460" y="67" type="line"/>
      <point x="354" y="67" type="line"/>
      <point x="354" y="67" type="line"/>
      <point x="354" y="230" type="line"/>
      <point x="516" y="336" type="line"/>
      <point x="793" y="67" type="line"/>
      <point x="793" y="67" type="line"/>
      <point x="741" y="67" type="line"/>
      <point x="741" y="0" type="line"/>
      <point x="800" y="3"/>
      <point x="864" y="4"/>
      <point x="923" y="4" type="curve" smooth="yes"/>
      <point x="976" y="4"/>
      <point x="1024" y="3"/>
      <point x="1076" y="0" type="curve"/>
      <point x="1076" y="67" type="line"/>
      <point x="981" y="67" type="line"/>
      <point x="629" y="409" type="line"/>
      <point x="949" y="619" type="line"/>
      <point x="1056" y="619" type="line"/>
      <point x="1056" y="686" type="line"/>
      <point x="1013" y="682"/>
      <point x="970" y="682"/>
      <point x="927" y="682" type="curve" smooth="yes"/>
      <point x="858" y="682"/>
      <point x="780" y="685"/>
      <point x="756" y="686" type="curve"/>
      <point x="756" y="619" type="line"/>
      <point x="798" y="619" type="line"/>
      <point x="798" y="619" type="line"/>
      <point x="354" y="329" type="line"/>
      <point x="354" y="619" type="line"/>
      <point x="354" y="619" type="line"/>
      <point x="460" y="619" type="line"/>
      <point x="460" y="686" type="line"/>
      <point x="401" y="683"/>
      <point x="311" y="682"/>
      <point x="276" y="682" type="curve" smooth="yes"/>
      <point x="255" y="682"/>
      <point x="158" y="683"/>
      <point x="92" y="686" type="curve"/>
      <point x="92" y="619" type="line"/>
      <point x="198" y="619" type="line"/>
      <point x="198" y="619" type="line"/>
      <point x="198" y="67" type="line"/>
      <point x="198" y="67" type="line"/>
      <point x="92" y="67" type="line"/>
    </contour>
  </outline>
</glyph>
<glyph name="M" format="2">
  <advance width="1394"/>
  <unicode hex="004D"/>
  <outline>
    <contour>
      <point x="697" y="111" type="line"/>
      <point x="395" y="657" type="line" smooth="yes"/>
      <point x="379" y="686"/>
      <point x="357" y="686"/>
      <point x="339" y="686" type="curve" smooth="yes"/>
      <point x="104" y="686" type="line"/>
      <point x="104" y="619" type="line"/>
      <point x="210" y="619" type="line"/>
      <point x="210" y="619" type="line"/>
      <point x="210" y="67" type="line"/>
      <point x="210" y="67" type="line"/>
      <point x="104" y="67" type="line"/>
      <point x="104" y="0" type="line"/>
      <point x="143" y="2"/>
      <point x="197" y="4"/>
      <point x="255" y="4" type="curve" smooth="yes"/>
      <point x="314" y="4"/>
      <point x="366" y="2"/>
      <point x="407" y="0" type="curve"/>
      <point x="407" y="67" type="line"/>
      <point x="301" y="67" type="line"/>
      <point x="301" y="67" type="line"/>
      <point x="301" y="602" type="line"/>
      <point x="302" y="602" type="line"/>
      <point x="619" y="29" type="line" smooth="yes"/>
      <point x="635" y="0"/>
      <point x="657" y="0"/>
      <point x="673" y="0" type="curve" smooth="yes"/>
      <point x="689" y="0"/>
      <point x="711" y="0"/>
      <point x="727" y="29" type="curve" smooth="yes"/>
      <point x="1052" y="616" type="line"/>
      <point x="1053" y="616" type="line"/>
      <point x="1053" y="67" type="line"/>
      <point x="1053" y="67" type="line"/>
      <point x="947" y="67" type="line"/>
      <point x="947" y="0" type="line"/>
      <point x="993" y="2"/>
      <point x="1059" y="4"/>
      <point x="1118" y="4" type="curve" smooth="yes"/>
      <point x="1178" y="4"/>
      <point x="1240" y="2"/>
      <point x="1290" y="0" type="curve"/>
      <point x="1290" y="67" type="line"/>
      <point x="1184" y="67" type="line"/>
      <point x="1184" y="67" type="line"/>
      <point x="1184" y="619" type="line"/>
      <point x="1184" y="619" type="line"/>
      <point x="1290" y="619" type="line"/>
      <point x="1290" y="686" type="line"/>
      <point x="1055" y="686" type="line" smooth="yes"/>
      <point x="1037" y="686"/>
      <point x="1015" y="686"/>
      <point x="999" y="657" type="curve" smooth="yes"/>
    </contour>
  </outline>
</glyph>
<glyph name="O" format="2">
  <advance width="1122"/>
  <unicode hex="004F"/>
  <outline>
    <contour>
      <point x="1024" y="338" type="curve" smooth="yes"/>
      <point x="1024" y="519"/>
      <point x="888" y="703"/>
      <point x="561" y="703" type="curve" smooth="yes"/>
      <point x="233" y="703"/>
      <point x="98" y="518"/>
      <point x="98" y="338" type="curve" smooth="yes"/>
      <point x="98" y="162"/>
      <point x="234" y="-17"/>
      <point x="561" y="-17" type="curve" smooth="yes"/>
      <point x="889" y="-17"/>
      <point x="1024" y="163"/>
    </contour>
    <contour>
      <point x="561" y="47" type="curve" smooth="yes"/>
      <point x="463" y="47"/>
      <point x="395.22871861" y="74.51208460000001"/>
      <point x="349.46918187251396" y="119.77936811745602" type="curve" smooth="yes"/>
      <point x="292.00395718999994" y="176.62641692000003"/>
      <point x="269.99999999999994" y="261.4744"/>
      <point x="270" y="355" type="curve" smooth="yes"/>
      <point x="270" y="421"/>
      <point x="281" y="509"/>
      <point x="346" y="571" type="curve" smooth="yes"/>
      <point x="408" y="628"/>
      <point x="496" y="641"/>
      <point x="561" y="641" type="curve" smooth="yes"/>
      <point x="626" y="641"/>
      <point x="709" y="629"/>
      <point x="774" y="572" type="curve" smooth="yes"/>
      <point x="840" y="514"/>
      <point x="852" y="423"/>
      <point x="852" y="355" type="curve" smooth="yes"/>
      <point x="852.0" y="255.72832"/>
      <point x="827.258044416" y="173.921549824"/>
      <point x="772.1205323590533" y="119.6305354967941" type="curve" smooth="yes"/>
      <point x="725.0606985216" y="73.29318696959999"/>
      <point x="655.85888" y="47.0"/>
    </contour>
  </outline>
</glyph>
<glyph name="T" format="2">
  <advance width="1041"/>
  <unicode hex="0054"/>
  <outline>
    <contour>
      <point x="946" y="669" type="line"/>
      <point x="96" y="669" type="line"/>
      <point x="69" y="463" type="line"/>
      <point x="152" y="463" type="line"/>
      <point x="167" y="575"/>
      <point x="213" y="602"/>
      <point x="323" y="602" type="curve" smooth="yes"/>
      <point x="443" y="602" type="line"/>
      <point x="443" y="602" type="line"/>
      <point x="443" y="67" type="line"/>
      <point x="443" y="67" type="line"/>
      <point x="294" y="67" type="line"/>
      <point x="294" y="0" type="line"/>
      <point x="342" y="4"/>
      <point x="467" y="4"/>
      <point x="521" y="4" type="curve" smooth="yes"/>
      <point x="575" y="4"/>
      <point x="700" y="4"/>
      <point x="748" y="0" type="curve"/>
      <point x="748" y="67" type="line"/>
      <point x="599" y="67" type="line"/>
      <point x="599" y="67" type="line"/>
      <point x="599" y="602" type="line"/>
      <point x="599" y="602" type="line"/>
      <point x="719" y="602" type="line" smooth="yes"/>
      <point x="829" y="602"/>
      <point x="875" y="575"/>
      <point x="890" y="463" type="curve"/>
      <point x="973" y="463" type="line"/>
    </contour>
  </outline>
</glyph>
<glyph name="W" format="2">
  <advance width="1516"/>
  <unicode hex="0057"/>
  <outline>
    <contour>
      <point x="516" y="113" type="line"/>
      <point x="300" y="619" type="line"/>
      <point x="300" y="619" type="line"/>
      <point x="386" y="619" type="line"/>
      <point x="386" y="686" type="line"/>
      <point x="334" y="684"/>
      <point x="246" y="682"/>
      <point x="207" y="682" type="curve" smooth="yes"/>
      <point x="143" y="682"/>
      <point x="92" y="684"/>
      <point x="50" y="686" type="curve"/>
      <point x="50" y="619" type="line"/>
      <point x="140" y="619" type="line"/>
      <point x="140" y="619" type="line"/>
      <point x="396" y="16" type="line" smooth="yes"/>
      <point x="410" y="-17"/>
      <point x="418" y="-17"/>
      <point x="477" y="-17" type="curve" smooth="yes"/>
      <point x="540" y="-17"/>
      <point x="551" y="-17"/>
      <point x="564" y="13" type="curve" smooth="yes"/>
      <point x="758" y="471" type="line"/>
      <point x="953" y="13" type="line" smooth="yes"/>
      <point x="966" y="-17"/>
      <point x="976" y="-17"/>
      <point x="1040" y="-17" type="curve" smooth="yes"/>
      <point x="1106" y="-17"/>
      <point x="1108" y="-13"/>
      <point x="1120" y="16" type="curve" smooth="yes"/>
      <point x="1377" y="619" type="line"/>
      <point x="1377" y="619" type="line"/>
      <point x="1467" y="619" type="line"/>
      <point x="1467" y="686" type="line"/>
      <point x="1428" y="682"/>
      <point x="1382" y="682"/>
      <point x="1343" y="682" type="curve" smooth="yes"/>
      <point x="1298" y="682"/>
      <point x="1227" y="685"/>
      <point x="1191" y="686" type="curve"/>
      <point x="1191" y="619" type="line"/>
      <point x="1287" y="619" type="line"/>
      <point x="1287" y="619" type="line"/>
      <point x="1072" y="113" type="line"/>
      <point x="856" y="619" type="line"/>
      <point x="856" y="619" type="line"/>
      <point x="941" y="619" type="line"/>
      <point x="941" y="686" type="line"/>
      <point x="894" y="684"/>
      <point x="826" y="682"/>
      <point x="763" y="682" type="curve" smooth="yes"/>
      <point x="699" y="682"/>
      <point x="648" y="684"/>
      <point x="606" y="686" type="curve"/>
      <point x="606" y="619" type="line"/>
      <point x="695" y="619" type="line"/>
      <point x="695" y="619" type="line"/>
      <point x="713" y="577" type="line"/>
    </contour>
  </outline>
</glyph>
<glyph name="Y" format="2">
  <advance width="1113"/>
  <unicode hex="0059"/>
  <outline>
    <contour>
      <point x="483" y="274" type="line"/>
      <point x="483" y="67" type="line"/>
      <point x="483" y="67" type="line"/>
      <point x="377" y="67" type="line"/>
      <point x="377" y="0" type="line"/>
      <point x="415" y="2"/>
      <point x="482" y="4"/>
      <point x="557" y="4" type="curve" smooth="yes"/>
      <point x="633" y="4"/>
      <point x="693" y="2"/>
      <point x="736" y="0" type="curve"/>
      <point x="736" y="67" type="line"/>
      <point x="631" y="67" type="line"/>
      <point x="631" y="67" type="line"/>
      <point x="631" y="275" type="line"/>
      <point x="951" y="619" type="line"/>
      <point x="951" y="619" type="line"/>
      <point x="1061" y="619" type="line"/>
      <point x="1061" y="686" type="line"/>
      <point x="1015" y="683"/>
      <point x="968" y="682"/>
      <point x="922" y="682" type="curve" smooth="yes"/>
      <point x="870" y="682"/>
      <point x="803" y="685"/>
      <point x="766" y="686" type="curve"/>
      <point x="766" y="619" type="line"/>
      <point x="823" y="619" type="line"/>
      <point x="823" y="619" type="line"/>
      <point x="594" y="372" type="line"/>
      <point x="364" y="619" type="line"/>
      <point x="364" y="619" type="line"/>
      <point x="422" y="619" type="line"/>
      <point x="422" y="686" type="line"/>
      <point x="366" y="682"/>
      <point x="286" y="682"/>
      <point x="229" y="682" type="curve" smooth="yes"/>
      <point x="165" y="682"/>
      <point x="113" y="684"/>
      <point x="53" y="686" type="curve"/>
      <point x="53" y="619" type="line"/>
      <point x="163" y="619" type="line"/>
      <point x="163" y="619" type="line"/>
    </contour>
  </outline>
</glyph>
<glyph name="b" format="2">
  <advance width="838"/>
  <unicode hex="0062"/>
  <outline>
    <contour>
      <point x="156" y="0" type="line"/>
      <point x="239" y="0" type="line"/>
      <point x="267" y="52" type="line"/>
      <point x="337" y="2"/>
      <point x="409" y="-8"/>
      <point x="460" y="-8" type="curve" smooth="yes"/>
      <point x="669" y="-8"/>
      <point x="774" y="100"/>
      <point x="774" y="223" type="curve" smooth="yes"/>
      <point x="774" y="332"/>
      <point x="689" y="452"/>
      <point x="476" y="452" type="curve" smooth="yes"/>
      <point x="379" y="452"/>
      <point x="312" y="425"/>
      <point x="281" y="409" type="curve"/>
      <point x="281" y="694" type="line"/>
      <point x="84" y="686" type="line"/>
      <point x="84" y="619" type="line"/>
      <point x="148" y="619"/>
      <point x="156" y="619"/>
      <point x="156" y="580" type="curve" smooth="yes"/>
    </contour>
    <contour>
      <point x="446" y="48" type="curve" smooth="yes"/>
      <point x="361" y="48"/>
      <point x="312" y="97"/>
      <point x="289" y="129" type="curve"/>
      <point x="289" y="129" type="line"/>
      <point x="289" y="311" type="line" smooth="yes"/>
      <point x="289" y="331"/>
      <point x="289" y="332"/>
      <point x="308" y="347" type="curve" smooth="yes"/>
      <point x="356" y="386"/>
      <point x="418" y="396"/>
      <point x="460" y="396" type="curve" smooth="yes"/>
      <point x="522.0002" y="396.0"/>
      <point x="560.5612243899999" y="379.135227305"/>
      <point x="584.5442535093605" y="355.2394308281927" type="curve" smooth="yes"/>
      <point x="624.0" y="315.92719536000004"/>
      <point x="624.0" y="257.5853000000001"/>
      <point x="624" y="224" type="curve" smooth="yes"/>
      <point x="624.0" y="190.93256"/>
      <point x="624.0" y="132.3661556672"/>
      <point x="583.1266301148185" y="91.92966496892866" type="curve" smooth="yes"/>
      <point x="557.2527110112001" y="66.3323018912"/>
      <point x="514.9999200000001" y="48.0"/>
    </contour>
  </outline>
</glyph>
<glyph name="e" format="2">
  <advance width="692"/>
  <unicode hex="0065"/>
  <outline>
    <contour>
      <point x="208" y="197" type="curve"/>
      <point x="597" y="197" type="line" smooth="yes"/>
      <point x="617" y="197"/>
      <point x="635" y="197"/>
      <point x="635" y="229" type="curve" smooth="yes"/>
      <point x="635" y="349"/>
      <point x="566" y="456"/>
      <point x="366" y="456" type="curve" smooth="yes"/>
      <point x="142" y="456"/>
      <point x="57" y="333"/>
      <point x="57" y="226" type="curve" smooth="yes"/>
      <point x="57" y="120"/>
      <point x="142" y="-8"/>
      <point x="387" y="-8" type="curve" smooth="yes"/>
      <point x="589" y="-8"/>
      <point x="635.0" y="83.63456"/>
      <point x="635" y="110" type="curve" smooth="yes"/>
      <point x="635" y="135"/>
      <point x="611" y="135"/>
      <point x="596" y="135" type="curve" smooth="yes"/>
      <point x="571" y="135"/>
      <point x="562" y="135"/>
      <point x="554" y="121" type="curve" smooth="yes"/>
      <point x="543" y="102"/>
      <point x="516" y="54"/>
      <point x="410" y="54" type="curve" smooth="yes"/>
      <point x="335.18303" y="54.0"/>
      <point x="281.53614611809996" y="71.0054790129"/>
      <point x="248.24154445705187" y="104.19863314145186" type="curve" smooth="yes"/>
      <point x="225.01936374969998" y="127.35005664449999"/>
      <point x="211.69800999999998" y="158.37633999999997"/>
    </contour>
    <contour>
      <point x="208" y="248" type="line"/>
      <point x="209" y="284"/>
      <point x="211" y="400"/>
      <point x="367" y="400" type="curve" smooth="yes"/>
      <point x="503" y="400"/>
      <point x="529" y="315"/>
      <point x="534" y="248" type="curve"/>
    </contour>
  </outline>
</glyph>
<glyph name="f" format="2">
  <advance width="476"/>
  <unicode hex="0066"/>
  <outline>
    <contour>
      <point x="298" y="377" type="line"/>
      <point x="449" y="377" type="line"/>
      <point x="449" y="444" type="line"/>
      <point x="290" y="444" type="line"/>
      <point x="290" y="533" type="line" smooth="yes"/>
      <point x="290" y="549"/>
      <point x="290" y="590"/>
      <point x="324" y="618" type="curve" smooth="yes"/>
      <point x="356" y="643"/>
      <point x="397" y="646"/>
      <point x="414" y="646" type="curve" smooth="yes"/>
      <point x="426" y="646"/>
      <point x="426" y="645"/>
      <point x="426" y="643" type="curve" smooth="yes"/>
      <point x="426" y="642"/>
      <point x="426" y="641"/>
      <point x="425" y="640" type="curve"/>
      <point x="419" y="628"/>
      <point x="416" y="616"/>
      <point x="416" y="603" type="curve" smooth="yes"/>
      <point x="416" y="552"/>
      <point x="457" y="529"/>
      <point x="489" y="529" type="curve" smooth="yes"/>
      <point x="526" y="529"/>
      <point x="563" y="555"/>
      <point x="563" y="603" type="curve" smooth="yes"/>
      <point x="563" y="652"/>
      <point x="520" y="702"/>
      <point x="425" y="702" type="curve" smooth="yes"/>
      <point x="290" y="702"/>
      <point x="173" y="649"/>
      <point x="173" y="535" type="curve" smooth="yes"/>
      <point x="173" y="444" type="line"/>
      <point x="73" y="444" type="line"/>
      <point x="73" y="377" type="line"/>
      <point x="173" y="377" type="line"/>
      <point x="173" y="67" type="line"/>
      <point x="101" y="67" type="line"/>
      <point x="101" y="0" type="line"/>
      <point x="147" y="3"/>
      <point x="193" y="4"/>
      <point x="239" y="4" type="curve" smooth="yes"/>
      <point x="295" y="4"/>
      <point x="353" y="2"/>
      <point x="388" y="0" type="curve"/>
      <point x="388" y="67" type="line"/>
      <point x="298" y="67" type="line"/>
    </contour>
  </outline>
</glyph>
<glyph name="k" format="2">
  <advance width="798"/>
  <unicode hex="006B"/>
  <outline>
    <contour>
      <point x="465" y="265" type="line"/>
      <point x="638" y="377" type="line"/>
      <point x="725" y="377" type="line"/>
      <point x="725" y="444" type="line"/>
      <point x="687" y="441"/>
      <point x="660" y="440"/>
      <point x="617" y="440" type="curve" smooth="yes"/>
      <point x="574" y="440"/>
      <point x="506" y="443"/>
      <point x="470" y="444" type="curve"/>
      <point x="470" y="377" type="line"/>
      <point x="485" y="377" type="line"/>
      <point x="485" y="377" type="line"/>
      <point x="281" y="245" type="line"/>
      <point x="281" y="694" type="line"/>
      <point x="84" y="686" type="line"/>
      <point x="84" y="619" type="line"/>
      <point x="148" y="619"/>
      <point x="156" y="619"/>
      <point x="156" y="580" type="curve" smooth="yes"/>
      <point x="156" y="67" type="line"/>
      <point x="156" y="67" type="line"/>
      <point x="84" y="67" type="line"/>
      <point x="84" y="0" type="line"/>
      <point x="135" y="3"/>
      <point x="211" y="4"/>
      <point x="214" y="4" type="curve" smooth="yes"/>
      <point x="257" y="4"/>
      <point x="301" y="3"/>
      <point x="344" y="0" type="curve"/>
      <point x="344" y="67" type="line"/>
      <point x="272" y="67" type="line"/>
      <point x="272" y="67" type="line"/>
      <point x="272" y="141" type="line"/>
      <point x="371" y="205" type="line"/>
      <point x="521" y="67" type="line"/>
      <point x="521" y="67" type="line"/>
      <point x="506" y="67" type="line"/>
      <point x="506" y="0" type="line"/>
      <point x="553" y="3"/>
      <point x="618" y="4"/>
      <point x="641" y="4" type="curve" smooth="yes"/>
      <point x="684" y="4"/>
      <point x="713" y="4"/>
      <point x="757" y="0" type="curve"/>
      <point x="757" y="67" type="line"/>
      <point x="680" y="67" type="line"/>
    </contour>
  </outline>
</glyph>
<glyph name="n" format="2">
  <advance width="838"/>
  <unicode hex="006E"/>
  <outline>
    <contour>
      <point x="169" y="67" type="line"/>
      <point x="97" y="67" type="line"/>
      <point x="97" y="67" type="line"/>
      <point x="97" y="0" type="line"/>
      <point x="138" y="2"/>
      <point x="196" y="4"/>
      <point x="236" y="4" type="curve" smooth="yes"/>
      <point x="273" y="4"/>
      <point x="330" y="3"/>
      <point x="374" y="0" type="curve"/>
      <point x="374" y="67" type="line"/>
      <point x="374" y="67" type="line"/>
      <point x="302" y="67" type="line"/>
      <point x="302" y="242" type="line" smooth="yes"/>
      <point x="302" y="364"/>
      <point x="425" y="396"/>
      <point x="487" y="396" type="curve" smooth="yes"/>
      <point x="551" y="396"/>
      <point x="571" y="370"/>
      <point x="571" y="298" type="curve" smooth="yes"/>
      <point x="571" y="67" type="line"/>
      <point x="499" y="67" type="line"/>
      <point x="499" y="67" type="line"/>
      <point x="499" y="0" type="line"/>
      <point x="540" y="2"/>
      <point x="598" y="4"/>
      <point x="638" y="4" type="curve" smooth="yes"/>
      <point x="675" y="4"/>
      <point x="732" y="3"/>
      <point x="776" y="0" type="curve"/>
      <point x="776" y="67" type="line"/>
      <point x="776" y="67" type="line"/>
      <point x="704" y="67" type="line"/>
      <point x="704" y="295" type="line" smooth="yes"/>
      <point x="704" y="348"/>
      <point x="688" y="384"/>
      <point x="665" y="407" type="curve" smooth="yes"/>
      <point x="623" y="448"/>
      <point x="557" y="452"/>
      <point x="510" y="452" type="curve" smooth="yes"/>
      <point x="375" y="452"/>
      <point x="310" y="384"/>
      <point x="285" y="345" type="curve"/>
      <point x="285" y="345" type="line"/>
      <point x="285" y="452" type="line"/>
      <point x="97" y="444" type="line"/>
      <point x="97" y="377" type="line"/>
      <point x="161" y="377"/>
      <point x="169" y="377"/>
      <point x="169" y="338" type="curve" smooth="yes"/>
    </contour>
  </outline>
</glyph>
<glyph name="o" format="2">
  <advance width="758"/>
  <unicode hex="006F"/>
  <outline>
    <contour>
      <point x="701" y="217" type="curve" smooth="yes"/>
      <point x="701" y="329"/>
      <point x="613" y="456"/>
      <point x="379" y="456" type="curve" smooth="yes"/>
      <point x="142" y="456"/>
      <point x="57" y="327"/>
      <point x="57" y="217" type="curve" smooth="yes"/>
      <point x="57" y="111"/>
      <point x="145" y="-8"/>
      <point x="379" y="-8" type="curve" smooth="yes"/>
      <point x="614" y="-8"/>
      <point x="701" y="111"/>
    </contour>
    <contour>
      <point x="379" y="54" type="curve" smooth="yes"/>
      <point x="308.00012" y="54.0"/>
      <point x="266.30828046519997" y="69.8467893213"/>
      <point x="241.8264153719701" y="94.22525827519354" type="curve" smooth="yes"/>
      <point x="207.0" y="128.9045885749"/>
      <point x="207.0" y="180.84878"/>
      <point x="207" y="229" type="curve" smooth="yes"/>
      <point x="207.0" y="274.9306"/>
      <point x="207.0" y="325.25553748000004"/>
      <point x="240.802866420768" y="359.33934165988006" type="curve" smooth="yes"/>
      <point x="265.14046512" y="383.87921168"/>
      <point x="307" y="400"/>
      <point x="379" y="400" type="curve" smooth="yes"/>
      <point x="449.99988" y="400.0"/>
      <point x="491.69171953480003" y="384.1532106787"/>
      <point x="516.1735846280299" y="360.05609209744904" type="curve" smooth="yes"/>
      <point x="551.0" y="325.7769937615"/>
      <point x="551.0" y="274.80238"/>
      <point x="551" y="229" type="curve" smooth="yes"/>
      <point x="551.0" y="180.84878"/>
      <point x="551.0" y="128.9045885749"/>
      <point x="516.1735846280299" y="94.22525827519353" type="curve" smooth="yes"/>
      <point x="491.6917195348" y="69.8467893213"/>
      <point x="449.99987999999996" y="54.0"/>
    </contour>
  </outline>
</glyph>
<glyph name="q" format="2">
  <advance width="798"/>
  <unicode hex="0071"/>
  <outline>
    <contour>
      <point x="683" y="452" type="line"/>
      <point x="608" y="452" type="line"/>
      <point x="577" y="379" type="line"/>
      <point x="530" y="421"/>
      <point x="462" y="452"/>
      <point x="374" y="452" type="curve" smooth="yes"/>
      <point x="166" y="452"/>
      <point x="65" y="342"/>
      <point x="65" y="221" type="curve" smooth="yes"/>
      <point x="65" y="108"/>
      <point x="157" y="-8"/>
      <point x="363" y="-8" type="curve" smooth="yes"/>
      <point x="451" y="-8"/>
      <point x="507" y="16"/>
      <point x="550" y="39" type="curve"/>
      <point x="550" y="-127" type="line"/>
      <point x="478" y="-127" type="line"/>
      <point x="478" y="-194" type="line"/>
      <point x="518" y="-192"/>
      <point x="576" y="-190"/>
      <point x="616" y="-190" type="curve" smooth="yes"/>
      <point x="635" y="-190"/>
      <point x="700" y="-191"/>
      <point x="755" y="-194" type="curve"/>
      <point x="755" y="-127" type="line"/>
      <point x="683" y="-127" type="line"/>
    </contour>
    <contour>
      <point x="558" y="142" type="line"/>
      <point x="519" y="78"/>
      <point x="446" y="48"/>
      <point x="380" y="48" type="curve" smooth="yes"/>
      <point x="275" y="48"/>
      <point x="215" y="120"/>
      <point x="215" y="221" type="curve" smooth="yes"/>
      <point x="215" y="334"/>
      <point x="296" y="390"/>
      <point x="393" y="390" type="curve" smooth="yes"/>
      <point x="494" y="390"/>
      <point x="558" y="310"/>
      <point x="558" y="253" type="curve" smooth="yes"/>
    </contour>
  </outline>
</glyph>
<glyph name="r" format="2">
  <advance width="622"/>
  <unicode hex="0072"/>
  <outline>
    <contour>
      <point x="156" y="67" type="line"/>
      <point x="156" y="67" type="line"/>
      <point x="84" y="67" type="line"/>
      <point x="84" y="0" type="line"/>
      <point x="130" y="3"/>
      <point x="176" y="4"/>
      <point x="222" y="4" type="curve" smooth="yes"/>
      <point x="278" y="4"/>
      <point x="336" y="2"/>
      <point x="371" y="0" type="curve"/>
      <point x="371" y="67" type="line"/>
      <point x="281" y="67" type="line"/>
      <point x="281" y="67" type="line"/>
      <point x="281" y="197" type="line" smooth="yes"/>
      <point x="281" y="305"/>
      <point x="344" y="389"/>
      <point x="429" y="396" type="curve"/>
      <point x="429" y="396" type="line"/>
      <point x="423" y="386"/>
      <point x="419" y="380"/>
      <point x="419" y="357" type="curve" smooth="yes"/>
      <point x="419" y="314"/>
      <point x="451" y="284"/>
      <point x="492" y="284" type="curve" smooth="yes"/>
      <point x="533" y="284"/>
      <point x="565" y="313"/>
      <point x="565" y="357" type="curve" smooth="yes"/>
      <point x="565" y="415"/>
      <point x="507" y="452"/>
      <point x="439" y="452" type="curve" smooth="yes"/>
      <point x="351" y="452"/>
      <point x="292" y="390"/>
      <point x="265" y="331" type="curve"/>
      <point x="264" y="331" type="line"/>
      <point x="264" y="452" type="line"/>
      <point x="84" y="444" type="line"/>
      <point x="84" y="377" type="line"/>
      <point x="148" y="377"/>
      <point x="156" y="377"/>
      <point x="156" y="338" type="curve" smooth="yes"/>
    </contour>
  </outline>
</glyph>
<glyph name="s" format="2">
  <advance width="605"/>
  <unicode hex="0073"/>
  <outline>
    <contour>
      <point x="468" y="317" type="line" smooth="yes"/>
      <point x="498" y="317"/>
      <point x="503" y="322"/>
      <point x="503" y="352" type="curve" smooth="yes"/>
      <point x="503" y="421" type="line" smooth="yes"/>
      <point x="503" y="442"/>
      <point x="503" y="456"/>
      <point x="473" y="456" type="curve" smooth="yes"/>
      <point x="461" y="456"/>
      <point x="442" y="448"/>
      <point x="427" y="441" type="curve"/>
      <point x="384" y="456"/>
      <point x="331" y="456"/>
      <point x="300" y="456" type="curve" smooth="yes"/>
      <point x="263" y="456"/>
      <point x="198" y="456"/>
      <point x="141" y="431" type="curve" smooth="yes"/>
      <point x="79" y="402"/>
      <point x="65" y="353"/>
      <point x="65" y="323" type="curve" smooth="yes"/>
      <point x="65" y="218"/>
      <point x="200" y="200"/>
      <point x="275" y="189" type="curve" smooth="yes"/>
      <point x="394" y="173"/>
      <point x="459" y="165"/>
      <point x="459" y="115" type="curve" smooth="yes"/>
      <point x="459" y="48"/>
      <point x="334" y="48"/>
      <point x="309" y="48" type="curve" smooth="yes"/>
      <point x="219" y="48"/>
      <point x="174" y="76"/>
      <point x="149" y="140" type="curve" smooth="yes"/>
      <point x="141" y="159"/>
      <point x="138" y="161"/>
      <point x="113" y="161" type="curve" smooth="yes"/>
      <point x="101" y="161" type="line" smooth="yes"/>
      <point x="70" y="161"/>
      <point x="65" y="156"/>
      <point x="65" y="125" type="curve" smooth="yes"/>
      <point x="65" y="27" type="line" smooth="yes"/>
      <point x="65" y="6"/>
      <point x="65" y="-8"/>
      <point x="95" y="-8" type="curve" smooth="yes"/>
      <point x="106" y="-8"/>
      <point x="108" y="-8"/>
      <point x="128" y="4" type="curve"/>
      <point x="135" y="7"/>
      <point x="151" y="17"/>
      <point x="158" y="21" type="curve"/>
      <point x="214" y="-8"/>
      <point x="279" y="-8"/>
      <point x="307" y="-8" type="curve" smooth="yes"/>
      <point x="347" y="-8"/>
      <point x="540" y="-8"/>
      <point x="540" y="140" type="curve" smooth="yes"/>
      <point x="540" y="199"/>
      <point x="498" y="234"/>
      <point x="469" y="249" type="curve" smooth="yes"/>
      <point x="419" y="276"/>
      <point x="394" y="280"/>
      <point x="274" y="296" type="curve" smooth="yes"/>
      <point x="205" y="306"/>
      <point x="146" y="314"/>
      <point x="146" y="351" type="curve" smooth="yes"/>
      <point x="146" y="377"/>
      <point x="176" y="406"/>
      <point x="294" y="406" type="curve" smooth="yes"/>
      <point x="397" y="406"/>
      <point x="416" y="379"/>
      <point x="420" y="343" type="curve" smooth="yes"/>
      <point x="422" y="319"/>
      <point x="431" y="317"/>
      <point x="455" y="317" type="curve" smooth="yes"/>
    </contour>
  </outline>
</glyph>
<glyph name="v" format="2">
  <advance width="798"/>
  <unicode hex="0076"/>
  <outline>
    <contour>
      <point x="126" y="377" type="line"/>
      <point x="312" y="23" type="line" smooth="yes"/>
      <point x="326" y="-4"/>
      <point x="331" y="-8"/>
      <point x="406" y="-8" type="curve" smooth="yes"/>
      <point x="460" y="-8"/>
      <point x="471" y="-8"/>
      <point x="486" y="21" type="curve" smooth="yes"/>
      <point x="673" y="377" type="line"/>
      <point x="746" y="377" type="line"/>
      <point x="746" y="444" type="line"/>
      <point x="712" y="441"/>
      <point x="679" y="440"/>
      <point x="645" y="440" type="curve" smooth="yes"/>
      <point x="610" y="440"/>
      <point x="567" y="441"/>
      <point x="532" y="444" type="curve"/>
      <point x="532" y="377" type="line"/>
      <point x="579" y="377" type="line"/>
      <point x="579" y="377" type="line"/>
      <point x="423" y="79" type="line"/>
      <point x="267" y="377" type="line"/>
      <point x="267" y="377" type="line"/>
      <point x="314" y="377" type="line"/>
      <point x="314" y="444" type="line"/>
      <point x="277" y="442"/>
      <point x="219" y="440"/>
      <point x="178" y="440" type="curve" smooth="yes"/>
      <point x="129" y="440"/>
      <point x="105" y="440"/>
      <point x="53" y="444" type="curve"/>
      <point x="53" y="377" type="line"/>
    </contour>
  </outline>
</glyph>
<glyph name="macron" format="2">
  <advance width="758"/>
  <unicode hex="00AF"/>
  <outline>
    <contour>
      <point x="640" y="562" type="line"/>
      <point x="640" y="633" type="line"/>
      <point x="118" y="633" type="line"/>
      <point x="118" y="562" type="line"/>
    </contour>
  </outline>
</glyph>
<glyph name="AE" format="2">
  <advance width="1338"/>
  <unicode hex="00C6"/>
  <outline>
    <contour>
      <point x="1282" y="229" type="line"/>
      <point x="1199" y="229" type="line"/>
      <point x="1164" y="85"/>
      <point x="1076" y="67"/>
      <point x="959" y="67" type="curve" smooth="yes"/>
      <point x="767" y="67" type="line"/>
      <point x="767" y="67" type="line"/>
      <point x="767" y="297" type="line"/>
      <point x="862" y="297" type="line" smooth="yes"/>
      <point x="931" y="297"/>
      <point x="983" y="291"/>
      <point x="986" y="214" type="curve"/>
      <point x="1069" y="214" type="line"/>
      <point x="1069" y="447" type="line"/>
      <point x="986" y="447" type="line"/>
      <point x="983" y="370"/>
      <point x="931" y="364"/>
      <point x="862" y="364" type="curve" smooth="yes"/>
      <point x="767" y="364" type="line"/>
      <point x="767" y="619" type="line"/>
      <point x="767" y="619" type="line"/>
      <point x="946" y="619" type="line" smooth="yes"/>
      <point x="1048" y="619"/>
      <point x="1133" y="608"/>
      <point x="1158" y="480" type="curve"/>
      <point x="1241" y="480" type="line"/>
      <point x="1202" y="686" type="line"/>
      <point x="382" y="686" type="line"/>
      <point x="382" y="619" type="line"/>
      <point x="429" y="619" type="line"/>
      <point x="173" y="67" type="line"/>
      <point x="71" y="67" type="line"/>
      <point x="71" y="0" type="line"/>
      <point x="117" y="3"/>
      <point x="163" y="4"/>
      <point x="209" y="4" type="curve" smooth="yes"/>
      <point x="268" y="4"/>
      <point x="331" y="1"/>
      <point x="360" y="0" type="curve"/>
      <point x="360" y="67" type="line"/>
      <point x="277" y="67" type="line"/>
      <point x="383" y="297" type="line"/>
      <point x="618" y="297" type="line"/>
      <point x="618" y="67" type="line"/>
      <point x="539" y="67" type="line"/>
      <point x="539" y="0" type="line"/>
      <point x="1224" y="0" type="line"/>
    </contour>
    <contour>
      <point x="533" y="619" type="line"/>
      <point x="618" y="619" type="line"/>
      <point x="618" y="364" type="line"/>
      <point x="415" y="364" type="line"/>
    </contour>
  </outline>
</glyph>
<glyph name="Oslash" format="2">
  <advance width="1161"/>
  <unicode hex="00D8"/>
  <outline>
    <contour>
      <point x="952" y="714" type="line"/>
      <point x="906" y="756" type="line"/>
      <point x="824" y="663" type="line"/>
      <point x="775" y="681"/>
      <point x="700" y="703"/>
      <point x="581" y="703" type="curve" smooth="yes"/>
      <point x="232" y="703"/>
      <point x="98" y="512"/>
      <point x="98" y="338" type="curve" smooth="yes"/>
      <point x="98" y="260"/>
      <point x="127" y="132"/>
      <point x="277" y="49" type="curve"/>
      <point x="209" y="-28" type="line"/>
      <point x="255" y="-70" type="line"/>
      <point x="336" y="22" type="line"/>
      <point x="419" y="-9"/>
      <point x="507" y="-17"/>
      <point x="580" y="-17" type="curve" smooth="yes"/>
      <point x="931" y="-17"/>
      <point x="1063" y="169"/>
      <point x="1063" y="338" type="curve" smooth="yes"/>
      <point x="1063" y="437"/>
      <point x="1017" y="562"/>
      <point x="882" y="635" type="curve"/>
    </contour>
    <contour>
      <point x="581" y="39" type="curve" smooth="yes"/>
      <point x="533" y="39"/>
      <point x="452" y="42"/>
      <point x="386" y="77" type="curve"/>
      <point x="826" y="573" type="line"/>
      <point x="858" y="544"/>
      <point x="907" y="490"/>
      <point x="907" y="338" type="curve" smooth="yes"/>
      <point x="907" y="260"/>
      <point x="895" y="179"/>
      <point x="839" y="121" type="curve" smooth="yes"/>
      <point x="786" y="67"/>
      <point x="697" y="39"/>
    </contour>
    <contour>
      <point x="333" y="112" type="line"/>
      <point x="257" y="175"/>
      <point x="254" y="293"/>
      <point x="254" y="338" type="curve" smooth="yes"/>
      <point x="254" y="456"/>
      <point x="281" y="520"/>
      <point x="329" y="567" type="curve" smooth="yes"/>
      <point x="378" y="616"/>
      <point x="458" y="647"/>
      <point x="580" y="647" type="curve" smooth="yes"/>
      <point x="636" y="647"/>
      <point x="710" y="641"/>
      <point x="774" y="608" type="curve"/>
    </contour>
  </outline>
</glyph>
<glyph name="ae" format="2">
  <advance width="1080"/>
  <unicode hex="00E6"/>
  <outline>
    <contour>
      <point x="71" y="113" type="curve" smooth="yes"/>
      <point x="71" y="-7"/>
      <point x="244" y="-8"/>
      <point x="313" y="-8" type="curve" smooth="yes"/>
      <point x="418" y="-8"/>
      <point x="520" y="-4"/>
      <point x="565" y="54" type="curve"/>
      <point x="641" y="2"/>
      <point x="731" y="-8"/>
      <point x="797" y="-8" type="curve" smooth="yes"/>
      <point x="974" y="-8"/>
      <point x="1024" y="79"/>
      <point x="1024" y="110" type="curve" smooth="yes"/>
      <point x="1024" y="135"/>
      <point x="1002" y="135"/>
      <point x="983" y="135" type="curve" smooth="yes"/>
      <point x="954" y="135"/>
      <point x="950" y="134"/>
      <point x="940" y="115" type="curve" smooth="yes"/>
      <point x="921" y="77"/>
      <point x="880" y="54"/>
      <point x="818" y="54" type="curve" smooth="yes"/>
      <point x="767" y="54"/>
      <point x="621" y="66"/>
      <point x="609" y="197" type="curve"/>
      <point x="986" y="197" type="line" smooth="yes"/>
      <point x="1007" y="197"/>
      <point x="1024" y="197"/>
      <point x="1024" y="230" type="curve" smooth="yes"/>
      <point x="1024" y="374"/>
      <point x="935" y="456"/>
      <point x="777" y="456" type="curve" smooth="yes"/>
      <point x="700" y="456"/>
      <point x="624" y="441"/>
      <point x="559" y="394" type="curve"/>
      <point x="490" y="456"/>
      <point x="372" y="456"/>
      <point x="331" y="456" type="curve" smooth="yes"/>
      <point x="259" y="456"/>
      <point x="111" y="456"/>
      <point x="111" y="348" type="curve" smooth="yes"/>
      <point x="111" y="300"/>
      <point x="146" y="272"/>
      <point x="186" y="272" type="curve" smooth="yes"/>
      <point x="230" y="272"/>
      <point x="261" y="304"/>
      <point x="261" y="347" type="curve" smooth="yes"/>
      <point x="261" y="364"/>
      <point x="256" y="380"/>
      <point x="247" y="392" type="curve"/>
      <point x="284" y="400"/>
      <point x="314" y="400"/>
      <point x="332" y="400" type="curve" smooth="yes"/>
      <point x="421" y="400"/>
      <point x="474" y="366"/>
      <point x="474" y="287" type="curve" smooth="yes"/>
      <point x="474" y="244" type="line"/>
      <point x="237" y="238"/>
      <point x="71" y="211"/>
    </contour>
    <contour>
      <point x="325" y="48" type="curve" smooth="yes"/>
      <point x="247" y="48"/>
      <point x="204" y="76"/>
      <point x="204" y="113" type="curve" smooth="yes"/>
      <point x="204" y="171"/>
      <point x="367" y="191"/>
      <point x="477" y="193" type="curve"/>
      <point x="479" y="179"/>
      <point x="481" y="171"/>
      <point x="488" y="153" type="curve" smooth="yes"/>
      <point x="492" y="143"/>
      <point x="493" y="134"/>
      <point x="493" y="123" type="curve" smooth="yes"/>
      <point x="493" y="53"/>
      <point x="377" y="48"/>
    </contour>
    <contour>
      <point x="608" y="248" type="line"/>
      <point x="611" y="309"/>
      <point x="635" y="400"/>
      <point x="777" y="400" type="curve" smooth="yes"/>
      <point x="896" y="400"/>
      <point x="919" y="318"/>
      <point x="923" y="248" type="curve"/>
    </contour>
  </outline>
</glyph>
<glyph name="oe" format="2">
  <advance width="1161"/>
  <unicode hex="0153"/>
  <outline>
    <contour>
      <point x="372" y="-8" type="curve" smooth="yes"/>
      <point x="515" y="-8"/>
      <point x="588" y="41"/>
      <point x="621" y="73" type="curve"/>
      <point x="690" y="11"/>
      <point x="784" y="-8"/>
      <point x="877" y="-8" type="curve" smooth="yes"/>
      <point x="1042" y="-8"/>
      <point x="1104" y="72"/>
      <point x="1104" y="110" type="curve" smooth="yes"/>
      <point x="1104" y="135"/>
      <point x="1084" y="135"/>
      <point x="1064" y="135" type="curve" smooth="yes"/>
      <point x="1033" y="135"/>
      <point x="1030" y="134"/>
      <point x="1020" y="115" type="curve" smooth="yes"/>
      <point x="1001" y="78"/>
      <point x="960" y="54"/>
      <point x="898" y="54" type="curve" smooth="yes"/>
      <point x="847" y="54"/>
      <point x="703" y="61"/>
      <point x="689" y="197" type="curve"/>
      <point x="1066" y="197" type="line" smooth="yes"/>
      <point x="1087" y="197"/>
      <point x="1104" y="197"/>
      <point x="1104" y="230" type="curve" smooth="yes"/>
      <point x="1104" y="393"/>
      <point x="993" y="456"/>
      <point x="857" y="456" type="curve" smooth="yes"/>
      <point x="787" y="456"/>
      <point x="693" y="444"/>
      <point x="619" y="378" type="curve"/>
      <point x="578" y="416"/>
      <point x="502" y="456"/>
      <point x="372" y="456" type="curve" smooth="yes"/>
      <point x="144" y="456"/>
      <point x="57" y="334"/>
      <point x="57" y="225" type="curve" smooth="yes"/>
      <point x="57" y="120"/>
      <point x="140" y="-8"/>
    </contour>
    <contour>
      <point x="372" y="48" type="curve" smooth="yes"/>
      <point x="194" y="48"/>
      <point x="190" y="174"/>
      <point x="190" y="230" type="curve" smooth="yes"/>
      <point x="190" y="285"/>
      <point x="196" y="400"/>
      <point x="372" y="400" type="curve" smooth="yes"/>
      <point x="550" y="400"/>
      <point x="554" y="283"/>
      <point x="554" y="229" type="curve" smooth="yes"/>
      <point x="554" y="171"/>
      <point x="548" y="48"/>
    </contour>
    <contour>
      <point x="688" y="248" type="line"/>
      <point x="691" y="309"/>
      <point x="715" y="400"/>
      <point x="857" y="400" type="curve" smooth="yes"/>
      <point x="976" y="400"/>
      <point x="999" y="318"/>
      <point x="1003" y="248" type="curve"/>
    </contour>
  </outline>
</glyph>
<glyph name="Theta" format="2">
  <advance width="1161"/>
  <unicode hex="0398"/>
  <outline>
    <contour>
      <point x="1063" y="338" type="curve" smooth="yes"/>
      <point x="1063" y="515"/>
      <point x="925" y="703"/>
      <point x="581" y="703" type="curve" smooth="yes"/>
      <point x="232" y="703"/>
      <point x="98" y="512"/>
      <point x="98" y="338" type="curve" smooth="yes"/>
      <point x="98" y="166"/>
      <point x="234" y="-17"/>
      <point x="580" y="-17" type="curve" smooth="yes"/>
      <point x="931" y="-17"/>
      <point x="1063" y="169"/>
    </contour>
    <contour>
      <point x="581" y="42" type="curve" smooth="yes"/>
      <point x="391" y="42"/>
      <point x="253" y="126"/>
      <point x="253" y="339" type="curve" smooth="yes"/>
      <point x="253" y="558"/>
      <point x="393" y="647"/>
      <point x="580" y="647" type="curve" smooth="yes"/>
      <point x="777" y="647"/>
      <point x="908" y="551"/>
      <point x="908" y="339" type="curve" smooth="yes"/>
      <point x="908" y="120"/>
      <point x="762" y="42"/>
    </contour>
    <contour>
      <point x="826" y="447" type="line"/>
      <point x="743" y="447" type="line"/>
      <point x="743" y="413" type="line"/>
      <point x="418" y="413" type="line"/>
      <point x="418" y="447" type="line"/>
      <point x="335" y="447" type="line"/>
      <point x="335" y="243" type="line"/>
      <point x="418" y="243" type="line"/>
      <point x="418" y="277" type="line"/>
      <point x="743" y="277" type="line"/>
      <point x="743" y="243" type="line"/>
      <point x="826" y="243" type="line"/>
    </contour>
  </outline>
</glyph>
<glyph name="Lambda" format="2">
  <advance width="1033"/>
  <unicode hex="039B"/>
  <outline>
    <contour>
      <point x="607" y="679" type="line" smooth="yes"/>
      <point x="593" y="711"/>
      <point x="575" y="711"/>
      <point x="554" y="711" type="curve" smooth="yes"/>
      <point x="479" y="711" type="line" smooth="yes"/>
      <point x="447" y="711"/>
      <point x="438" y="705"/>
      <point x="427" y="679" type="curve" smooth="yes"/>
      <point x="160" y="67" type="line"/>
      <point x="70" y="67" type="line"/>
      <point x="70" y="0" type="line"/>
      <point x="119" y="4"/>
      <point x="151" y="4"/>
      <point x="198" y="4" type="curve" smooth="yes"/>
      <point x="244" y="4"/>
      <point x="302" y="2"/>
      <point x="348" y="0" type="curve"/>
      <point x="348" y="67" type="line"/>
      <point x="263" y="67" type="line"/>
      <point x="483" y="573" type="line"/>
      <point x="703" y="67" type="line"/>
      <point x="618" y="67" type="line"/>
      <point x="618" y="0" type="line"/>
      <point x="681" y="3"/>
      <point x="782" y="4"/>
      <point x="800" y="4" type="curve" smooth="yes"/>
      <point x="865" y="4"/>
      <point x="908" y="2"/>
      <point x="963" y="0" type="curve"/>
      <point x="963" y="67" type="line"/>
      <point x="873" y="67" type="line"/>
    </contour>
  </outline>
</glyph>
<glyph name="quotedblleft" format="2">
  <advance width="769"/>
  <unicode hex="201C"/>
  <outline>
    <contour>
      <point x="277" y="487" type="curve"/>
      <point x="290" y="585"/>
      <point x="356" y="628"/>
      <point x="378" y="643" type="curve" smooth="yes"/>
      <point x="384" y="647"/>
      <point x="391" y="652"/>
      <point x="391" y="664" type="curve" smooth="yes"/>
      <point x="391" y="676"/>
      <point x="375" y="694"/>
      <point x="361" y="694" type="curve" smooth="yes"/>
      <point x="340" y="694"/>
      <point x="219" y="609"/>
      <point x="219" y="462" type="curve" smooth="yes"/>
      <point x="219" y="385"/>
      <point x="264" y="328"/>
      <point x="325" y="328" type="curve" smooth="yes"/>
      <point x="378" y="328"/>
      <point x="411" y="368"/>
      <point x="411" y="414" type="curve" smooth="yes"/>
      <point x="411" y="460"/>
      <point x="378" y="500"/>
      <point x="325" y="500" type="curve" smooth="yes"/>
      <point x="297" y="500"/>
      <point x="278" y="487"/>
    </contour>
    <contour>
      <point x="570" y="487" type="curve"/>
      <point x="583" y="585"/>
      <point x="649" y="628"/>
      <point x="671" y="643" type="curve" smooth="yes"/>
      <point x="677" y="647"/>
      <point x="684" y="652"/>
      <point x="684" y="664" type="curve" smooth="yes"/>
      <point x="684" y="676"/>
      <point x="668" y="694"/>
      <point x="654" y="694" type="curve" smooth="yes"/>
      <point x="633" y="694"/>
      <point x="512" y="609"/>
      <point x="512" y="462" type="curve" smooth="yes"/>
      <point x="512" y="385"/>
      <point x="557" y="328"/>
      <point x="618" y="328" type="curve" smooth="yes"/>
      <point x="671" y="328"/>
      <point x="704" y="368"/>
      <point x="704" y="414" type="curve" smooth="yes"/>
      <point x="704" y="460"/>
      <point x="671" y="500"/>
      <point x="618" y="500" type="curve" smooth="yes"/>
      <point x="590" y="500"/>
      <point x="571" y="487"/>
    </contour>
  </outline>
</glyph>
